<svg version="1.2" xmlns="http://www.w3.org/2000/svg" viewBox="0 0 618 334" width="618" height="334"><style>.a{fill:#ffbe79}.b{fill:#ffbe79;stroke:#fff;stroke-opacity:0;stroke-width:2.5}.c{fill:none}</style><path fill-rule="evenodd" class="a" d="m10 228.6q-5 0-9.3-0.8v-14.8q3.1 0.6 6.5 0.6 2.8 0 4.2-1 1.5-1 2.2-3.6 0.6-2.6 0.6-7.8v-84.9h17.3v85.7q0 10.8-1.9 16.4-1.9 5.6-6.4 7.9-4.5 2.3-13.2 2.3zm74.4-16.2q-11.5 0-19.6-4.9-8-4.8-12.1-13.2-4-8.3-4-18.7 0-10.3 4-18.6 4.1-8.4 12.1-13.2 8.1-4.8 19.6-4.8 11.4 0 19.4 4.8 8 4.8 12 13.2 4.1 8.3 4.1 18.6 0 10.4-4.1 18.7-4 8.4-12 13.2-8 4.9-19.4 4.9zm0-14.5q8.8 0 13.5-6.1 4.7-6 4.7-16.2 0-10.3-4.7-16.3-4.7-5.9-13.5-5.9-8.9 0-13.7 5.9-4.8 6-4.8 16.3 0 10.2 4.8 16.2 4.8 6.1 13.7 6.1zm87.1-58.9q9.1 0 16.2 4.1 7.2 4.1 11.1 12.3 4 8.3 4 20.3 0 12-4 20.2-3.9 8.3-11.1 12.4-7.1 4.1-16.2 4.1-10 0-19.4-7.6v5.5h-16.6v-104.9h16.6v41q9.3-7.4 19.4-7.4zm-3.1 58.4q8.4 0 12.7-5.6 4.4-5.5 4.4-16.1 0-10.7-4.4-16.3-4.3-5.5-12.7-5.5-8.1 0-16.3 6.3v30.9q7.9 6.3 16.3 6.3zm114.4-81.1q33.2 0 33.2 29.7 0 14.4-8.3 21.9-8.4 7.5-24.9 7.5h-18.4v34.9h-17.2v-94zm15.7 29.4q0-7.7-3.9-11.2-3.9-3.5-11.8-3.5h-18.4v29.8h18.4q8.1 0 11.9-3.7 3.8-3.7 3.8-11.4zm62.7 66.7q-11.6 0-19.6-4.9-8.1-4.8-12.1-13.2-4.1-8.3-4.1-18.7 0-10.3 4.1-18.6 4-8.4 12.1-13.2 8-4.8 19.6-4.8 11.4 0 19.4 4.8 8 4.8 12 13.2 4 8.3 4 18.6 0 10.4-4 18.7-4 8.4-12 13.2-8 4.9-19.4 4.9zm0-14.5q8.8 0 13.5-6.1 4.7-6 4.7-16.2 0-10.3-4.7-16.3-4.7-5.9-13.5-5.9-9 0-13.8 5.9-4.7 6-4.7 16.3 0 10.2 4.7 16.2 4.8 6.1 13.8 6.1zm87.6-58.4h2.9v14.9h-2.9q-10.1 0-19.9 7.6v48.3h-16.7v-69.3h16.7v6.9q9.5-8.4 19.9-8.4zm52.5 18.1h-15.9v31.3q0 4.5 1.5 6.2 1.5 1.8 5.4 1.8 4 0 7.6-1v14.5q-7.1 1.5-11.7 1.5-10.3 0-14.8-4.4-4.6-4.3-4.6-13.3v-36.6h-9.2v-15h9.2v-23.6h16.6v23.6h15.9zm38.5-16.6q12.3 0 18.7 3.6 6.4 3.7 8.5 9.8 2.1 6.1 2.1 15.4v40.5h-16.6v-6.4q-4.6 4.3-9 6.1-4.4 1.9-9.6 1.9-10.9 0-17.6-6.3-6.6-6.2-6.6-17.2 0-11.1 6.9-17.3 6.9-6.1 18.9-6.1 9.8 0 17 3.9-0.2-4.8-1.2-7.6-1.1-2.9-4.2-4.4-3.1-1.6-9.1-1.6h-11.7v-14.3zm-3 57.6q7.6 0 15.7-6.9v-10.9q-6.6-3.4-13.6-3.4-5.4 0-8.9 2.5-3.5 2.6-3.5 8.3 0 5.6 3 8 2.9 2.4 7.3 2.4zm69.8 13.3q-10.1 0-14.8-4.3-4.8-4.3-4.8-13.2v-89h16.7v83.5q0 4.5 1.5 6.2 1.4 1.8 5.3 1.8 3.8 0 6.8-0.8v14.4q-5.8 1.4-10.7 1.4z"/><path fill-rule="evenodd" class="b" d="m106.6 76.4c116-101.1 288.8-101.1 404.8 0h-11.1c-110.5-93.1-272.1-93.1-382.6 0zm11.1 181.2c110.5 93.1 272.1 93.1 382.6 0h11.1c-116 101.1-288.8 101.1-404.8 0z"/><path class="c" d="m-189.4-144.5h996.8v623h-996.8z"/></svg>